<mxfile host="app.diagrams.net" modified="2022-12-15T23:33:42.459Z" agent="5.0 (Windows NT 10.0; Win64; x64) AppleWebKit/537.36 (KHTML, like Gecko) Chrome/108.0.0.0 Safari/537.36" version="20.7.2" etag="uZ7tKdjKkXnzuGTB88us" type="github">
  <diagram id="c1oZlRYy-DprkKR2t52D" name="Page-1">
    <mxGraphModel dx="1330" dy="420" grid="0" gridSize="10" guides="1" tooltips="1" connect="1" arrows="1" fold="1" page="0" pageScale="1" pageWidth="827" pageHeight="1169" math="0" shadow="0">
      <root>
        <mxCell id="0" />
        <mxCell id="1" parent="0" />
        <mxCell id="ojf8vlIbQqwhDHuOTLE6-50" value="" style="rounded=0;whiteSpace=wrap;html=1;fontSize=7;" vertex="1" parent="1">
          <mxGeometry x="-59" y="90" width="716" height="372" as="geometry" />
        </mxCell>
        <mxCell id="ojf8vlIbQqwhDHuOTLE6-44" value="loop" style="shape=umlFrame;tabPosition=left;html=1;boundedLbl=1;labelInHeader=1;width=50;height=30;fontSize=8;" vertex="1" parent="1">
          <mxGeometry x="-37.5" y="280" width="638.5" height="92" as="geometry" />
        </mxCell>
        <mxCell id="ojf8vlIbQqwhDHuOTLE6-45" value="[User no valid]" style="text;align=center;fontSize=7;" vertex="1" parent="ojf8vlIbQqwhDHuOTLE6-44">
          <mxGeometry width="60" height="20" relative="1" as="geometry">
            <mxPoint x="8" y="35" as="offset" />
          </mxGeometry>
        </mxCell>
        <mxCell id="ojf8vlIbQqwhDHuOTLE6-1" value="User" style="shape=umlActor;verticalLabelPosition=bottom;verticalAlign=top;html=1;outlineConnect=0;" vertex="1" parent="1">
          <mxGeometry x="32" y="125" width="30" height="60" as="geometry" />
        </mxCell>
        <mxCell id="ojf8vlIbQqwhDHuOTLE6-2" value="" style="endArrow=none;html=1;rounded=0;dashed=1;" edge="1" parent="1">
          <mxGeometry width="50" height="50" relative="1" as="geometry">
            <mxPoint x="46.7" y="207" as="sourcePoint" />
            <mxPoint x="46.7" y="227" as="targetPoint" />
          </mxGeometry>
        </mxCell>
        <mxCell id="ojf8vlIbQqwhDHuOTLE6-3" value="" style="rounded=0;whiteSpace=wrap;html=1;" vertex="1" parent="1">
          <mxGeometry x="35.5" y="228" width="23" height="219" as="geometry" />
        </mxCell>
        <mxCell id="ojf8vlIbQqwhDHuOTLE6-4" value="&amp;lt;&amp;lt;boundary&amp;gt;&amp;gt;&lt;br&gt;&lt;u&gt;ui1: AppGUI&lt;/u&gt;" style="rounded=0;whiteSpace=wrap;html=1;" vertex="1" parent="1">
          <mxGeometry x="174" y="168" width="120" height="40" as="geometry" />
        </mxCell>
        <mxCell id="ojf8vlIbQqwhDHuOTLE6-5" value="" style="endArrow=none;html=1;rounded=0;dashed=1;" edge="1" parent="1">
          <mxGeometry width="50" height="50" relative="1" as="geometry">
            <mxPoint x="233.7" y="208" as="sourcePoint" />
            <mxPoint x="233.7" y="228" as="targetPoint" />
          </mxGeometry>
        </mxCell>
        <mxCell id="ojf8vlIbQqwhDHuOTLE6-6" value="&amp;lt;&amp;lt;control&amp;gt;&amp;gt;&lt;br&gt;&lt;u&gt;lm1: LoginManager&lt;/u&gt;" style="rounded=0;whiteSpace=wrap;html=1;" vertex="1" parent="1">
          <mxGeometry x="322" y="168" width="120" height="40" as="geometry" />
        </mxCell>
        <mxCell id="ojf8vlIbQqwhDHuOTLE6-7" value="" style="endArrow=none;html=1;rounded=0;dashed=1;" edge="1" parent="1">
          <mxGeometry width="50" height="50" relative="1" as="geometry">
            <mxPoint x="381.70000000000005" y="208" as="sourcePoint" />
            <mxPoint x="381.70000000000005" y="228" as="targetPoint" />
          </mxGeometry>
        </mxCell>
        <mxCell id="ojf8vlIbQqwhDHuOTLE6-8" value="" style="rounded=0;whiteSpace=wrap;html=1;" vertex="1" parent="1">
          <mxGeometry x="222.5" y="228" width="23" height="219" as="geometry" />
        </mxCell>
        <mxCell id="ojf8vlIbQqwhDHuOTLE6-9" value="" style="endArrow=open;html=1;rounded=0;endFill=0;" edge="1" parent="1">
          <mxGeometry width="50" height="50" relative="1" as="geometry">
            <mxPoint x="58" y="243" as="sourcePoint" />
            <mxPoint x="221" y="243" as="targetPoint" />
          </mxGeometry>
        </mxCell>
        <mxCell id="ojf8vlIbQqwhDHuOTLE6-10" value="clickLogin()" style="edgeLabel;html=1;align=center;verticalAlign=middle;resizable=0;points=[];fontSize=8;" vertex="1" connectable="0" parent="ojf8vlIbQqwhDHuOTLE6-9">
          <mxGeometry x="-0.3022" y="-1" relative="1" as="geometry">
            <mxPoint x="26" y="-2" as="offset" />
          </mxGeometry>
        </mxCell>
        <mxCell id="ojf8vlIbQqwhDHuOTLE6-14" value="" style="rounded=0;whiteSpace=wrap;html=1;" vertex="1" parent="1">
          <mxGeometry x="370.5" y="228" width="23" height="219" as="geometry" />
        </mxCell>
        <mxCell id="ojf8vlIbQqwhDHuOTLE6-16" value="" style="endArrow=open;html=1;rounded=0;endFill=0;" edge="1" parent="1">
          <mxGeometry width="50" height="50" relative="1" as="geometry">
            <mxPoint x="60" y="295" as="sourcePoint" />
            <mxPoint x="221.78" y="295" as="targetPoint" />
          </mxGeometry>
        </mxCell>
        <mxCell id="ojf8vlIbQqwhDHuOTLE6-17" value="login(username,&lt;br style=&quot;font-size: 8px;&quot;&gt;password)" style="edgeLabel;html=1;align=center;verticalAlign=middle;resizable=0;points=[];fontSize=8;" vertex="1" connectable="0" parent="ojf8vlIbQqwhDHuOTLE6-16">
          <mxGeometry x="-0.3022" y="-1" relative="1" as="geometry">
            <mxPoint x="26" y="-3" as="offset" />
          </mxGeometry>
        </mxCell>
        <mxCell id="ojf8vlIbQqwhDHuOTLE6-20" value="" style="endArrow=block;html=1;rounded=0;exitX=0.964;exitY=0.347;exitDx=0;exitDy=0;exitPerimeter=0;endFill=1;" edge="1" parent="1">
          <mxGeometry width="50" height="50" relative="1" as="geometry">
            <mxPoint x="245.50200000000004" y="299.35900000000004" as="sourcePoint" />
            <mxPoint x="369" y="299" as="targetPoint" />
          </mxGeometry>
        </mxCell>
        <mxCell id="ojf8vlIbQqwhDHuOTLE6-21" value="submitLogin(username,&lt;br style=&quot;font-size: 8px;&quot;&gt;password)" style="edgeLabel;html=1;align=center;verticalAlign=middle;resizable=0;points=[];fontSize=8;" vertex="1" connectable="0" parent="ojf8vlIbQqwhDHuOTLE6-20">
          <mxGeometry x="-0.3022" y="-1" relative="1" as="geometry">
            <mxPoint x="19" y="-3" as="offset" />
          </mxGeometry>
        </mxCell>
        <mxCell id="ojf8vlIbQqwhDHuOTLE6-24" value="&amp;lt;&amp;lt;control&amp;gt;&amp;gt;&lt;br&gt;&lt;u&gt;um1: UserManager&lt;/u&gt;" style="rounded=0;whiteSpace=wrap;html=1;" vertex="1" parent="1">
          <mxGeometry x="471" y="168" width="120" height="40" as="geometry" />
        </mxCell>
        <mxCell id="ojf8vlIbQqwhDHuOTLE6-25" value="" style="endArrow=none;html=1;rounded=0;dashed=1;entryX=0.5;entryY=0;entryDx=0;entryDy=0;" edge="1" parent="1" target="ojf8vlIbQqwhDHuOTLE6-26">
          <mxGeometry width="50" height="50" relative="1" as="geometry">
            <mxPoint x="530.7" y="208" as="sourcePoint" />
            <mxPoint x="530.7" y="228" as="targetPoint" />
          </mxGeometry>
        </mxCell>
        <mxCell id="ojf8vlIbQqwhDHuOTLE6-26" value="" style="rounded=0;whiteSpace=wrap;html=1;" vertex="1" parent="1">
          <mxGeometry x="519.5" y="383" width="23" height="29" as="geometry" />
        </mxCell>
        <mxCell id="ojf8vlIbQqwhDHuOTLE6-29" style="edgeStyle=orthogonalEdgeStyle;rounded=0;orthogonalLoop=1;jettySize=auto;html=1;fontSize=8;startArrow=none;startFill=0;endArrow=block;endFill=1;exitX=1.016;exitY=0.367;exitDx=0;exitDy=0;exitPerimeter=0;" edge="1" parent="1" source="ojf8vlIbQqwhDHuOTLE6-14">
          <mxGeometry relative="1" as="geometry">
            <mxPoint x="394" y="327" as="targetPoint" />
            <Array as="points">
              <mxPoint x="413" y="308" />
              <mxPoint x="413" y="327" />
            </Array>
          </mxGeometry>
        </mxCell>
        <mxCell id="ojf8vlIbQqwhDHuOTLE6-30" value="validateUser()" style="edgeLabel;html=1;align=center;verticalAlign=middle;resizable=0;points=[];fontSize=8;" vertex="1" connectable="0" parent="ojf8vlIbQqwhDHuOTLE6-29">
          <mxGeometry x="-0.0543" relative="1" as="geometry">
            <mxPoint x="16" y="1" as="offset" />
          </mxGeometry>
        </mxCell>
        <mxCell id="ojf8vlIbQqwhDHuOTLE6-31" style="edgeStyle=orthogonalEdgeStyle;rounded=0;orthogonalLoop=1;jettySize=auto;html=1;entryX=1;entryY=0.5;entryDx=0;entryDy=0;fontSize=8;startArrow=none;startFill=0;endArrow=block;endFill=1;exitX=0.967;exitY=0.379;exitDx=0;exitDy=0;exitPerimeter=0;" edge="1" parent="1">
          <mxGeometry relative="1" as="geometry">
            <mxPoint x="245.5010000000001" y="244.00300000000001" as="sourcePoint" />
            <mxPoint x="246.26" y="267.84000000000003" as="targetPoint" />
            <Array as="points">
              <mxPoint x="265.76" y="244.34" />
              <mxPoint x="265.76" y="268.34000000000003" />
              <mxPoint x="245.76" y="268.34000000000003" />
            </Array>
          </mxGeometry>
        </mxCell>
        <mxCell id="ojf8vlIbQqwhDHuOTLE6-32" value="displayLogin()" style="edgeLabel;html=1;align=center;verticalAlign=middle;resizable=0;points=[];fontSize=8;" vertex="1" connectable="0" parent="ojf8vlIbQqwhDHuOTLE6-31">
          <mxGeometry x="-0.0543" relative="1" as="geometry">
            <mxPoint x="10" as="offset" />
          </mxGeometry>
        </mxCell>
        <mxCell id="ojf8vlIbQqwhDHuOTLE6-33" value="" style="endArrow=block;html=1;rounded=0;exitX=0.964;exitY=0.347;exitDx=0;exitDy=0;exitPerimeter=0;endFill=1;entryX=-0.054;entryY=0.609;entryDx=0;entryDy=0;entryPerimeter=0;" edge="1" parent="1">
          <mxGeometry width="50" height="50" relative="1" as="geometry">
            <mxPoint x="393.50200000000007" y="389.07900000000006" as="sourcePoint" />
            <mxPoint x="518.258" y="389.00300000000004" as="targetPoint" />
          </mxGeometry>
        </mxCell>
        <mxCell id="ojf8vlIbQqwhDHuOTLE6-34" value="login(username, password)" style="edgeLabel;html=1;align=center;verticalAlign=middle;resizable=0;points=[];fontSize=8;" vertex="1" connectable="0" parent="ojf8vlIbQqwhDHuOTLE6-33">
          <mxGeometry x="-0.3022" y="-1" relative="1" as="geometry">
            <mxPoint x="16" y="-2" as="offset" />
          </mxGeometry>
        </mxCell>
        <mxCell id="ojf8vlIbQqwhDHuOTLE6-37" value="" style="endArrow=none;html=1;rounded=0;exitX=0.964;exitY=0.347;exitDx=0;exitDy=0;exitPerimeter=0;endFill=0;entryX=-0.054;entryY=0.609;entryDx=0;entryDy=0;entryPerimeter=0;dashed=1;startArrow=open;startFill=0;" edge="1" parent="1">
          <mxGeometry width="50" height="50" relative="1" as="geometry">
            <mxPoint x="394.7420000000001" y="405.1089999999999" as="sourcePoint" />
            <mxPoint x="519.498" y="405.0329999999999" as="targetPoint" />
          </mxGeometry>
        </mxCell>
        <mxCell id="ojf8vlIbQqwhDHuOTLE6-38" value="currentUser" style="edgeLabel;html=1;align=center;verticalAlign=middle;resizable=0;points=[];fontSize=8;" vertex="1" connectable="0" parent="ojf8vlIbQqwhDHuOTLE6-37">
          <mxGeometry x="-0.3022" y="-1" relative="1" as="geometry">
            <mxPoint x="16" y="-2" as="offset" />
          </mxGeometry>
        </mxCell>
        <mxCell id="ojf8vlIbQqwhDHuOTLE6-39" style="edgeStyle=orthogonalEdgeStyle;rounded=0;orthogonalLoop=1;jettySize=auto;html=1;entryX=1;entryY=0.5;entryDx=0;entryDy=0;fontSize=8;startArrow=none;startFill=0;endArrow=open;endFill=0;exitX=0.967;exitY=0.379;exitDx=0;exitDy=0;exitPerimeter=0;dashed=1;" edge="1" parent="1">
          <mxGeometry relative="1" as="geometry">
            <mxPoint x="393.501" y="337.003" as="sourcePoint" />
            <mxPoint x="394.2600000000002" y="360.8400000000001" as="targetPoint" />
            <Array as="points">
              <mxPoint x="413.76" y="337.34" />
              <mxPoint x="413.76" y="361.34" />
              <mxPoint x="393.76" y="361.34" />
            </Array>
          </mxGeometry>
        </mxCell>
        <mxCell id="ojf8vlIbQqwhDHuOTLE6-40" value="isValid" style="edgeLabel;html=1;align=center;verticalAlign=middle;resizable=0;points=[];fontSize=8;" vertex="1" connectable="0" parent="ojf8vlIbQqwhDHuOTLE6-39">
          <mxGeometry x="-0.0543" relative="1" as="geometry">
            <mxPoint x="2" as="offset" />
          </mxGeometry>
        </mxCell>
        <mxCell id="ojf8vlIbQqwhDHuOTLE6-43" value="" style="endArrow=none;html=1;rounded=0;dashed=1;entryX=0.9;entryY=-0.027;entryDx=0;entryDy=0;entryPerimeter=0;" edge="1" parent="1">
          <mxGeometry width="50" height="50" relative="1" as="geometry">
            <mxPoint x="530.73" y="412" as="sourcePoint" />
            <mxPoint x="531.6499999999999" y="444.6239999999999" as="targetPoint" />
          </mxGeometry>
        </mxCell>
        <mxCell id="ojf8vlIbQqwhDHuOTLE6-46" style="edgeStyle=orthogonalEdgeStyle;rounded=0;orthogonalLoop=1;jettySize=auto;html=1;entryX=1;entryY=0.5;entryDx=0;entryDy=0;fontSize=8;startArrow=none;startFill=0;endArrow=block;endFill=1;exitX=0.967;exitY=0.379;exitDx=0;exitDy=0;exitPerimeter=0;" edge="1" parent="1">
          <mxGeometry relative="1" as="geometry">
            <mxPoint x="245.5010000000002" y="412.00300000000004" as="sourcePoint" />
            <mxPoint x="246.26" y="435.84000000000003" as="targetPoint" />
            <Array as="points">
              <mxPoint x="265.76" y="412.34000000000003" />
              <mxPoint x="265.76" y="436.34000000000003" />
              <mxPoint x="245.76" y="436.34000000000003" />
            </Array>
          </mxGeometry>
        </mxCell>
        <mxCell id="ojf8vlIbQqwhDHuOTLE6-47" value="displayHome()" style="edgeLabel;html=1;align=center;verticalAlign=middle;resizable=0;points=[];fontSize=8;" vertex="1" connectable="0" parent="ojf8vlIbQqwhDHuOTLE6-46">
          <mxGeometry x="-0.0543" relative="1" as="geometry">
            <mxPoint x="10" as="offset" />
          </mxGeometry>
        </mxCell>
        <mxCell id="ojf8vlIbQqwhDHuOTLE6-51" value="Use cases 1 and 2" style="text;html=1;align=center;verticalAlign=middle;resizable=0;points=[];autosize=1;strokeColor=none;fillColor=none;fontSize=7;" vertex="1" parent="1">
          <mxGeometry x="-57" y="92" width="76" height="20" as="geometry" />
        </mxCell>
        <mxCell id="ojf8vlIbQqwhDHuOTLE6-52" value="" style="rounded=0;whiteSpace=wrap;html=1;fontSize=7;" vertex="1" parent="1">
          <mxGeometry x="-110" y="472" width="818" height="588" as="geometry" />
        </mxCell>
        <mxCell id="ojf8vlIbQqwhDHuOTLE6-53" value="loop" style="shape=umlFrame;tabPosition=left;html=1;boundedLbl=1;labelInHeader=1;width=50;height=30;fontSize=8;" vertex="1" parent="1">
          <mxGeometry x="-93" y="662" width="753" height="124" as="geometry" />
        </mxCell>
        <mxCell id="ojf8vlIbQqwhDHuOTLE6-54" value="[User details are valid]" style="text;align=center;fontSize=7;" vertex="1" parent="ojf8vlIbQqwhDHuOTLE6-53">
          <mxGeometry width="60" height="20" relative="1" as="geometry">
            <mxPoint x="8" y="35" as="offset" />
          </mxGeometry>
        </mxCell>
        <mxCell id="ojf8vlIbQqwhDHuOTLE6-55" value="User2" style="shape=umlActor;verticalLabelPosition=bottom;verticalAlign=top;html=1;outlineConnect=0;" vertex="1" parent="1">
          <mxGeometry x="91" y="507" width="30" height="60" as="geometry" />
        </mxCell>
        <mxCell id="ojf8vlIbQqwhDHuOTLE6-56" value="" style="endArrow=none;html=1;rounded=0;dashed=1;" edge="1" parent="1">
          <mxGeometry width="50" height="50" relative="1" as="geometry">
            <mxPoint x="105.69999999999982" y="589" as="sourcePoint" />
            <mxPoint x="105.69999999999982" y="609" as="targetPoint" />
          </mxGeometry>
        </mxCell>
        <mxCell id="ojf8vlIbQqwhDHuOTLE6-57" value="" style="rounded=0;whiteSpace=wrap;html=1;" vertex="1" parent="1">
          <mxGeometry x="94.5" y="610" width="23" height="437" as="geometry" />
        </mxCell>
        <mxCell id="ojf8vlIbQqwhDHuOTLE6-58" value="&amp;lt;&amp;lt;boundary&amp;gt;&amp;gt;&lt;br&gt;&lt;u&gt;ui1: AppGUI&lt;/u&gt;" style="rounded=0;whiteSpace=wrap;html=1;" vertex="1" parent="1">
          <mxGeometry x="233" y="550" width="120" height="40" as="geometry" />
        </mxCell>
        <mxCell id="ojf8vlIbQqwhDHuOTLE6-59" value="" style="endArrow=none;html=1;rounded=0;dashed=1;" edge="1" parent="1">
          <mxGeometry width="50" height="50" relative="1" as="geometry">
            <mxPoint x="292.6999999999998" y="590" as="sourcePoint" />
            <mxPoint x="292.6999999999998" y="610" as="targetPoint" />
          </mxGeometry>
        </mxCell>
        <mxCell id="ojf8vlIbQqwhDHuOTLE6-60" value="&amp;lt;&amp;lt;control&amp;gt;&amp;gt;&lt;br&gt;&lt;u&gt;rm1: RegistrationManager&lt;/u&gt;" style="rounded=0;whiteSpace=wrap;html=1;" vertex="1" parent="1">
          <mxGeometry x="381" y="550" width="155" height="40" as="geometry" />
        </mxCell>
        <mxCell id="ojf8vlIbQqwhDHuOTLE6-61" value="" style="endArrow=none;html=1;rounded=0;dashed=1;" edge="1" parent="1">
          <mxGeometry width="50" height="50" relative="1" as="geometry">
            <mxPoint x="458.1999999999998" y="590" as="sourcePoint" />
            <mxPoint x="458.1999999999998" y="610" as="targetPoint" />
          </mxGeometry>
        </mxCell>
        <mxCell id="ojf8vlIbQqwhDHuOTLE6-62" value="" style="rounded=0;whiteSpace=wrap;html=1;" vertex="1" parent="1">
          <mxGeometry x="281.5" y="610" width="23" height="437" as="geometry" />
        </mxCell>
        <mxCell id="ojf8vlIbQqwhDHuOTLE6-63" value="" style="endArrow=open;html=1;rounded=0;endFill=0;" edge="1" parent="1">
          <mxGeometry width="50" height="50" relative="1" as="geometry">
            <mxPoint x="117" y="625" as="sourcePoint" />
            <mxPoint x="280" y="625" as="targetPoint" />
          </mxGeometry>
        </mxCell>
        <mxCell id="ojf8vlIbQqwhDHuOTLE6-64" value="clickRegister()" style="edgeLabel;html=1;align=center;verticalAlign=middle;resizable=0;points=[];fontSize=8;" vertex="1" connectable="0" parent="ojf8vlIbQqwhDHuOTLE6-63">
          <mxGeometry x="-0.3022" y="-1" relative="1" as="geometry">
            <mxPoint x="26" y="-2" as="offset" />
          </mxGeometry>
        </mxCell>
        <mxCell id="ojf8vlIbQqwhDHuOTLE6-65" value="" style="rounded=0;whiteSpace=wrap;html=1;" vertex="1" parent="1">
          <mxGeometry x="447" y="610" width="23" height="437" as="geometry" />
        </mxCell>
        <mxCell id="ojf8vlIbQqwhDHuOTLE6-70" value="&amp;lt;&amp;lt;entity&amp;gt;&amp;gt;&lt;br&gt;&lt;u&gt;u1: User&lt;/u&gt;" style="rounded=0;whiteSpace=wrap;html=1;" vertex="1" parent="1">
          <mxGeometry x="570" y="550" width="120" height="40" as="geometry" />
        </mxCell>
        <mxCell id="ojf8vlIbQqwhDHuOTLE6-71" value="" style="endArrow=none;html=1;rounded=0;dashed=1;entryX=0.5;entryY=0;entryDx=0;entryDy=0;" edge="1" parent="1" target="ojf8vlIbQqwhDHuOTLE6-72">
          <mxGeometry width="50" height="50" relative="1" as="geometry">
            <mxPoint x="629.7000000000003" y="590" as="sourcePoint" />
            <mxPoint x="629.7" y="610" as="targetPoint" />
          </mxGeometry>
        </mxCell>
        <mxCell id="ojf8vlIbQqwhDHuOTLE6-75" style="edgeStyle=orthogonalEdgeStyle;rounded=0;orthogonalLoop=1;jettySize=auto;html=1;entryX=1;entryY=0.5;entryDx=0;entryDy=0;fontSize=8;startArrow=none;startFill=0;endArrow=block;endFill=1;exitX=0.967;exitY=0.379;exitDx=0;exitDy=0;exitPerimeter=0;" edge="1" parent="1">
          <mxGeometry relative="1" as="geometry">
            <mxPoint x="304.5010000000002" y="626.0029999999999" as="sourcePoint" />
            <mxPoint x="305.2600000000002" y="649.8400000000001" as="targetPoint" />
            <Array as="points">
              <mxPoint x="324.76" y="626.34" />
              <mxPoint x="324.76" y="650.34" />
              <mxPoint x="304.76" y="650.34" />
            </Array>
          </mxGeometry>
        </mxCell>
        <mxCell id="ojf8vlIbQqwhDHuOTLE6-76" value="displayRegistration()" style="edgeLabel;html=1;align=center;verticalAlign=middle;resizable=0;points=[];fontSize=8;" vertex="1" connectable="0" parent="ojf8vlIbQqwhDHuOTLE6-75">
          <mxGeometry x="-0.0543" relative="1" as="geometry">
            <mxPoint x="21" as="offset" />
          </mxGeometry>
        </mxCell>
        <mxCell id="ojf8vlIbQqwhDHuOTLE6-84" style="edgeStyle=orthogonalEdgeStyle;rounded=0;orthogonalLoop=1;jettySize=auto;html=1;entryX=1;entryY=0.5;entryDx=0;entryDy=0;fontSize=8;startArrow=none;startFill=0;endArrow=block;endFill=1;exitX=0.967;exitY=0.379;exitDx=0;exitDy=0;exitPerimeter=0;" edge="1" parent="1">
          <mxGeometry relative="1" as="geometry">
            <mxPoint x="304.5010000000002" y="794.0030000000002" as="sourcePoint" />
            <mxPoint x="305.2600000000002" y="817.8400000000001" as="targetPoint" />
            <Array as="points">
              <mxPoint x="324.76" y="794.34" />
              <mxPoint x="324.76" y="818.34" />
              <mxPoint x="304.76" y="818.34" />
            </Array>
          </mxGeometry>
        </mxCell>
        <mxCell id="ojf8vlIbQqwhDHuOTLE6-85" value="displayPayment()" style="edgeLabel;html=1;align=center;verticalAlign=middle;resizable=0;points=[];fontSize=8;" vertex="1" connectable="0" parent="ojf8vlIbQqwhDHuOTLE6-84">
          <mxGeometry x="-0.0543" relative="1" as="geometry">
            <mxPoint x="16" as="offset" />
          </mxGeometry>
        </mxCell>
        <mxCell id="ojf8vlIbQqwhDHuOTLE6-86" value="Use cases 3, 4 and 5" style="text;html=1;align=center;verticalAlign=middle;resizable=0;points=[];autosize=1;strokeColor=none;fillColor=none;fontSize=7;" vertex="1" parent="1">
          <mxGeometry x="-110" y="475" width="84" height="20" as="geometry" />
        </mxCell>
        <mxCell id="ojf8vlIbQqwhDHuOTLE6-93" value="loop" style="shape=umlFrame;tabPosition=left;html=1;boundedLbl=1;labelInHeader=1;width=50;height=30;fontSize=8;" vertex="1" parent="1">
          <mxGeometry x="-93" y="830" width="757.25" height="90" as="geometry" />
        </mxCell>
        <mxCell id="ojf8vlIbQqwhDHuOTLE6-94" value="[Payment is valid]" style="text;align=center;fontSize=7;" vertex="1" parent="ojf8vlIbQqwhDHuOTLE6-93">
          <mxGeometry width="60" height="20" relative="1" as="geometry">
            <mxPoint x="8" y="35" as="offset" />
          </mxGeometry>
        </mxCell>
        <mxCell id="ojf8vlIbQqwhDHuOTLE6-106" value="" style="endArrow=open;html=1;rounded=0;endFill=0;" edge="1" parent="1">
          <mxGeometry width="50" height="50" relative="1" as="geometry">
            <mxPoint x="117.99999999999989" y="843.9991735537192" as="sourcePoint" />
            <mxPoint x="279.7800000000002" y="843.9991735537192" as="targetPoint" />
          </mxGeometry>
        </mxCell>
        <mxCell id="ojf8vlIbQqwhDHuOTLE6-107" value="clickPay()" style="edgeLabel;html=1;align=center;verticalAlign=middle;resizable=0;points=[];fontSize=8;" vertex="1" connectable="0" parent="ojf8vlIbQqwhDHuOTLE6-106">
          <mxGeometry x="-0.3022" y="-1" relative="1" as="geometry">
            <mxPoint x="26" y="-3" as="offset" />
          </mxGeometry>
        </mxCell>
        <mxCell id="ojf8vlIbQqwhDHuOTLE6-108" value="" style="endArrow=block;html=1;rounded=0;exitX=0.964;exitY=0.347;exitDx=0;exitDy=0;exitPerimeter=0;endFill=1;entryX=-0.049;entryY=0.173;entryDx=0;entryDy=0;entryPerimeter=0;" edge="1" parent="1">
          <mxGeometry width="50" height="50" relative="1" as="geometry">
            <mxPoint x="305.00199999999995" y="849.5989999999999" as="sourcePoint" />
            <mxPoint x="446.37300000000005" y="848.9969999999998" as="targetPoint" />
          </mxGeometry>
        </mxCell>
        <mxCell id="ojf8vlIbQqwhDHuOTLE6-109" value="processPayment()" style="edgeLabel;html=1;align=center;verticalAlign=middle;resizable=0;points=[];fontSize=8;" vertex="1" connectable="0" parent="ojf8vlIbQqwhDHuOTLE6-108">
          <mxGeometry x="-0.3022" y="-1" relative="1" as="geometry">
            <mxPoint x="19" y="-3" as="offset" />
          </mxGeometry>
        </mxCell>
        <mxCell id="ojf8vlIbQqwhDHuOTLE6-110" style="edgeStyle=orthogonalEdgeStyle;rounded=0;orthogonalLoop=1;jettySize=auto;html=1;fontSize=8;startArrow=none;startFill=0;endArrow=block;endFill=1;exitX=1.023;exitY=0.198;exitDx=0;exitDy=0;exitPerimeter=0;" edge="1" parent="1">
          <mxGeometry relative="1" as="geometry">
            <mxPoint x="470" y="872.02" as="targetPoint" />
            <Array as="points">
              <mxPoint x="493" y="854.02" />
              <mxPoint x="493" y="872.02" />
            </Array>
            <mxPoint x="470.529" y="854.002" as="sourcePoint" />
          </mxGeometry>
        </mxCell>
        <mxCell id="ojf8vlIbQqwhDHuOTLE6-111" value="validateDetails()" style="edgeLabel;html=1;align=center;verticalAlign=middle;resizable=0;points=[];fontSize=8;" vertex="1" connectable="0" parent="ojf8vlIbQqwhDHuOTLE6-110">
          <mxGeometry x="-0.0543" relative="1" as="geometry">
            <mxPoint x="17" y="2" as="offset" />
          </mxGeometry>
        </mxCell>
        <mxCell id="ojf8vlIbQqwhDHuOTLE6-112" style="edgeStyle=orthogonalEdgeStyle;rounded=0;orthogonalLoop=1;jettySize=auto;html=1;fontSize=8;startArrow=none;startFill=0;endArrow=open;endFill=0;dashed=1;" edge="1" parent="1">
          <mxGeometry relative="1" as="geometry">
            <mxPoint x="470" y="882" as="sourcePoint" />
            <mxPoint x="471" y="906" as="targetPoint" />
            <Array as="points">
              <mxPoint x="493" y="882" />
              <mxPoint x="493" y="906" />
              <mxPoint x="473" y="906" />
            </Array>
          </mxGeometry>
        </mxCell>
        <mxCell id="ojf8vlIbQqwhDHuOTLE6-113" value="isValidPayment" style="edgeLabel;html=1;align=center;verticalAlign=middle;resizable=0;points=[];fontSize=8;" vertex="1" connectable="0" parent="ojf8vlIbQqwhDHuOTLE6-112">
          <mxGeometry x="-0.0543" relative="1" as="geometry">
            <mxPoint x="16" y="2" as="offset" />
          </mxGeometry>
        </mxCell>
        <mxCell id="ojf8vlIbQqwhDHuOTLE6-72" value="" style="rounded=0;whiteSpace=wrap;html=1;" vertex="1" parent="1">
          <mxGeometry x="618.5" y="932" width="23" height="29" as="geometry" />
        </mxCell>
        <mxCell id="ojf8vlIbQqwhDHuOTLE6-116" value="" style="endArrow=block;html=1;rounded=0;exitX=0.964;exitY=0.347;exitDx=0;exitDy=0;exitPerimeter=0;endFill=1;" edge="1" parent="1">
          <mxGeometry width="50" height="50" relative="1" as="geometry">
            <mxPoint x="470.00199999999995" y="938.5989999999999" as="sourcePoint" />
            <mxPoint x="617" y="938" as="targetPoint" />
          </mxGeometry>
        </mxCell>
        <mxCell id="ojf8vlIbQqwhDHuOTLE6-117" value="createUser(details)" style="edgeLabel;html=1;align=center;verticalAlign=middle;resizable=0;points=[];fontSize=8;" vertex="1" connectable="0" parent="ojf8vlIbQqwhDHuOTLE6-116">
          <mxGeometry x="-0.3022" y="-1" relative="1" as="geometry">
            <mxPoint x="19" y="-3" as="offset" />
          </mxGeometry>
        </mxCell>
        <mxCell id="ojf8vlIbQqwhDHuOTLE6-118" value="" style="endArrow=none;html=1;rounded=0;exitX=0.964;exitY=0.347;exitDx=0;exitDy=0;exitPerimeter=0;endFill=0;startArrow=open;startFill=0;dashed=1;" edge="1" parent="1">
          <mxGeometry width="50" height="50" relative="1" as="geometry">
            <mxPoint x="471.50199999999995" y="953.5989999999999" as="sourcePoint" />
            <mxPoint x="618.5" y="953.0000000000002" as="targetPoint" />
          </mxGeometry>
        </mxCell>
        <mxCell id="ojf8vlIbQqwhDHuOTLE6-119" value="newUser" style="edgeLabel;html=1;align=center;verticalAlign=middle;resizable=0;points=[];fontSize=8;" vertex="1" connectable="0" parent="ojf8vlIbQqwhDHuOTLE6-118">
          <mxGeometry x="-0.3022" y="-1" relative="1" as="geometry">
            <mxPoint x="19" y="-3" as="offset" />
          </mxGeometry>
        </mxCell>
        <mxCell id="ojf8vlIbQqwhDHuOTLE6-121" style="edgeStyle=orthogonalEdgeStyle;rounded=0;orthogonalLoop=1;jettySize=auto;html=1;entryX=1;entryY=0.5;entryDx=0;entryDy=0;fontSize=8;startArrow=none;startFill=0;endArrow=block;endFill=1;exitX=0.967;exitY=0.379;exitDx=0;exitDy=0;exitPerimeter=0;" edge="1" parent="1">
          <mxGeometry relative="1" as="geometry">
            <mxPoint x="304.5010000000001" y="1013.0030000000002" as="sourcePoint" />
            <mxPoint x="305.26000000000033" y="1036.8400000000001" as="targetPoint" />
            <Array as="points">
              <mxPoint x="324.76" y="1013.34" />
              <mxPoint x="324.76" y="1037.3400000000001" />
              <mxPoint x="304.76" y="1037.3400000000001" />
            </Array>
          </mxGeometry>
        </mxCell>
        <mxCell id="ojf8vlIbQqwhDHuOTLE6-122" value="displayHome()" style="edgeLabel;html=1;align=center;verticalAlign=middle;resizable=0;points=[];fontSize=8;" vertex="1" connectable="0" parent="ojf8vlIbQqwhDHuOTLE6-121">
          <mxGeometry x="-0.0543" relative="1" as="geometry">
            <mxPoint x="16" as="offset" />
          </mxGeometry>
        </mxCell>
        <mxCell id="ojf8vlIbQqwhDHuOTLE6-130" value="" style="endArrow=open;html=1;rounded=0;endFill=0;entryX=-0.065;entryY=0.012;entryDx=0;entryDy=0;entryPerimeter=0;" edge="1" parent="1">
          <mxGeometry width="50" height="50" relative="1" as="geometry">
            <mxPoint y="618" as="sourcePoint" />
            <mxPoint x="93.00500000000011" y="616.9079999999999" as="targetPoint" />
          </mxGeometry>
        </mxCell>
        <mxCell id="ojf8vlIbQqwhDHuOTLE6-131" value="give referral code" style="edgeLabel;html=1;align=center;verticalAlign=middle;resizable=0;points=[];fontSize=8;" vertex="1" connectable="0" parent="ojf8vlIbQqwhDHuOTLE6-130">
          <mxGeometry x="-0.3022" y="-1" relative="1" as="geometry">
            <mxPoint x="11" y="-3" as="offset" />
          </mxGeometry>
        </mxCell>
        <mxCell id="ojf8vlIbQqwhDHuOTLE6-129" value="" style="rounded=0;whiteSpace=wrap;html=1;" vertex="1" parent="1">
          <mxGeometry x="-20.25" y="610" width="23" height="17" as="geometry" />
        </mxCell>
        <mxCell id="ojf8vlIbQqwhDHuOTLE6-126" value="User" style="shape=umlActor;verticalLabelPosition=bottom;verticalAlign=top;html=1;outlineConnect=0;" vertex="1" parent="1">
          <mxGeometry x="-23" y="507" width="30" height="60" as="geometry" />
        </mxCell>
        <mxCell id="ojf8vlIbQqwhDHuOTLE6-127" value="" style="endArrow=none;html=1;rounded=0;dashed=1;" edge="1" parent="1">
          <mxGeometry width="50" height="50" relative="1" as="geometry">
            <mxPoint x="-8.299999999999955" y="589" as="sourcePoint" />
            <mxPoint x="-8.299999999999955" y="609" as="targetPoint" />
          </mxGeometry>
        </mxCell>
        <mxCell id="ojf8vlIbQqwhDHuOTLE6-132" style="edgeStyle=orthogonalEdgeStyle;rounded=0;orthogonalLoop=1;jettySize=auto;html=1;fontSize=8;startArrow=none;startFill=0;endArrow=block;endFill=1;exitX=1.016;exitY=0.367;exitDx=0;exitDy=0;exitPerimeter=0;" edge="1" parent="1">
          <mxGeometry relative="1" as="geometry">
            <mxPoint x="470" y="777.2453719008263" as="targetPoint" />
            <Array as="points">
              <mxPoint x="493" y="757.6172727272726" />
              <mxPoint x="493" y="777.2453719008264" />
            </Array>
            <mxPoint x="470.3679999999997" y="758.0026033057852" as="sourcePoint" />
          </mxGeometry>
        </mxCell>
        <mxCell id="ojf8vlIbQqwhDHuOTLE6-133" value="calculateCost()" style="edgeLabel;html=1;align=center;verticalAlign=middle;resizable=0;points=[];fontSize=8;" vertex="1" connectable="0" parent="ojf8vlIbQqwhDHuOTLE6-132">
          <mxGeometry x="-0.0543" relative="1" as="geometry">
            <mxPoint x="16" y="1" as="offset" />
          </mxGeometry>
        </mxCell>
        <mxCell id="ojf8vlIbQqwhDHuOTLE6-134" style="edgeStyle=orthogonalEdgeStyle;rounded=0;orthogonalLoop=1;jettySize=auto;html=1;fontSize=8;startArrow=none;startFill=0;endArrow=open;endFill=0;dashed=1;" edge="1" parent="1">
          <mxGeometry relative="1" as="geometry">
            <mxPoint x="470" y="722" as="sourcePoint" />
            <mxPoint x="471" y="746" as="targetPoint" />
            <Array as="points">
              <mxPoint x="493" y="722" />
              <mxPoint x="493" y="746" />
              <mxPoint x="473" y="746" />
            </Array>
          </mxGeometry>
        </mxCell>
        <mxCell id="ojf8vlIbQqwhDHuOTLE6-135" value="isValidUser" style="edgeLabel;html=1;align=center;verticalAlign=middle;resizable=0;points=[];fontSize=8;" vertex="1" connectable="0" parent="ojf8vlIbQqwhDHuOTLE6-134">
          <mxGeometry x="-0.0543" relative="1" as="geometry">
            <mxPoint x="8" y="2" as="offset" />
          </mxGeometry>
        </mxCell>
        <mxCell id="ojf8vlIbQqwhDHuOTLE6-136" value="" style="endArrow=open;html=1;rounded=0;endFill=0;" edge="1" parent="1">
          <mxGeometry width="50" height="50" relative="1" as="geometry">
            <mxPoint x="119" y="677" as="sourcePoint" />
            <mxPoint x="280.78" y="677" as="targetPoint" />
          </mxGeometry>
        </mxCell>
        <mxCell id="ojf8vlIbQqwhDHuOTLE6-137" value="register(details)" style="edgeLabel;html=1;align=center;verticalAlign=middle;resizable=0;points=[];fontSize=8;" vertex="1" connectable="0" parent="ojf8vlIbQqwhDHuOTLE6-136">
          <mxGeometry x="-0.3022" y="-1" relative="1" as="geometry">
            <mxPoint x="26" y="-3" as="offset" />
          </mxGeometry>
        </mxCell>
        <mxCell id="ojf8vlIbQqwhDHuOTLE6-138" value="" style="endArrow=block;html=1;rounded=0;exitX=0.964;exitY=0.347;exitDx=0;exitDy=0;exitPerimeter=0;endFill=1;entryX=-0.049;entryY=0.173;entryDx=0;entryDy=0;entryPerimeter=0;" edge="1" parent="1">
          <mxGeometry width="50" height="50" relative="1" as="geometry">
            <mxPoint x="304.5019999999997" y="681.3589999999999" as="sourcePoint" />
            <mxPoint x="445.8729999999998" y="680.7570000000001" as="targetPoint" />
          </mxGeometry>
        </mxCell>
        <mxCell id="ojf8vlIbQqwhDHuOTLE6-139" value="submitRegistration(details)" style="edgeLabel;html=1;align=center;verticalAlign=middle;resizable=0;points=[];fontSize=8;" vertex="1" connectable="0" parent="ojf8vlIbQqwhDHuOTLE6-138">
          <mxGeometry x="-0.3022" y="-1" relative="1" as="geometry">
            <mxPoint x="19" y="-3" as="offset" />
          </mxGeometry>
        </mxCell>
        <mxCell id="ojf8vlIbQqwhDHuOTLE6-140" style="edgeStyle=orthogonalEdgeStyle;rounded=0;orthogonalLoop=1;jettySize=auto;html=1;fontSize=8;startArrow=none;startFill=0;endArrow=block;endFill=1;exitX=1.023;exitY=0.198;exitDx=0;exitDy=0;exitPerimeter=0;" edge="1" parent="1">
          <mxGeometry relative="1" as="geometry">
            <mxPoint x="470" y="709" as="targetPoint" />
            <Array as="points">
              <mxPoint x="493" y="691" />
              <mxPoint x="493" y="709" />
            </Array>
            <mxPoint x="470.52899999999977" y="690.982" as="sourcePoint" />
          </mxGeometry>
        </mxCell>
        <mxCell id="ojf8vlIbQqwhDHuOTLE6-141" value="validateDetails()" style="edgeLabel;html=1;align=center;verticalAlign=middle;resizable=0;points=[];fontSize=8;" vertex="1" connectable="0" parent="ojf8vlIbQqwhDHuOTLE6-140">
          <mxGeometry x="-0.0543" relative="1" as="geometry">
            <mxPoint x="17" y="2" as="offset" />
          </mxGeometry>
        </mxCell>
        <mxCell id="ojf8vlIbQqwhDHuOTLE6-179" value="" style="rounded=0;whiteSpace=wrap;html=1;fontSize=7;" vertex="1" parent="1">
          <mxGeometry x="-65" y="1071" width="563" height="372" as="geometry" />
        </mxCell>
        <mxCell id="ojf8vlIbQqwhDHuOTLE6-180" value="alt" style="shape=umlFrame;tabPosition=left;html=1;boundedLbl=1;labelInHeader=1;width=50;height=30;fontSize=8;" vertex="1" parent="1">
          <mxGeometry x="-41" y="1262" width="511" height="92" as="geometry" />
        </mxCell>
        <mxCell id="ojf8vlIbQqwhDHuOTLE6-181" value="[User changes &#xa;profile info]" style="text;align=center;fontSize=7;" vertex="1" parent="ojf8vlIbQqwhDHuOTLE6-180">
          <mxGeometry width="60" height="20" relative="1" as="geometry">
            <mxPoint x="8" y="35" as="offset" />
          </mxGeometry>
        </mxCell>
        <mxCell id="ojf8vlIbQqwhDHuOTLE6-182" value="User" style="shape=umlActor;verticalLabelPosition=bottom;verticalAlign=top;html=1;outlineConnect=0;" vertex="1" parent="1">
          <mxGeometry x="26" y="1106" width="30" height="60" as="geometry" />
        </mxCell>
        <mxCell id="ojf8vlIbQqwhDHuOTLE6-183" value="" style="endArrow=none;html=1;rounded=0;dashed=1;" edge="1" parent="1">
          <mxGeometry width="50" height="50" relative="1" as="geometry">
            <mxPoint x="40.69999999999982" y="1188" as="sourcePoint" />
            <mxPoint x="40.69999999999982" y="1208" as="targetPoint" />
          </mxGeometry>
        </mxCell>
        <mxCell id="ojf8vlIbQqwhDHuOTLE6-184" value="" style="rounded=0;whiteSpace=wrap;html=1;" vertex="1" parent="1">
          <mxGeometry x="29.5" y="1209" width="23" height="219" as="geometry" />
        </mxCell>
        <mxCell id="ojf8vlIbQqwhDHuOTLE6-185" value="&amp;lt;&amp;lt;boundary&amp;gt;&amp;gt;&lt;br&gt;&lt;u&gt;ui1: AppGUI&lt;/u&gt;" style="rounded=0;whiteSpace=wrap;html=1;" vertex="1" parent="1">
          <mxGeometry x="168" y="1149" width="120" height="40" as="geometry" />
        </mxCell>
        <mxCell id="ojf8vlIbQqwhDHuOTLE6-186" value="" style="endArrow=none;html=1;rounded=0;dashed=1;" edge="1" parent="1">
          <mxGeometry width="50" height="50" relative="1" as="geometry">
            <mxPoint x="227.69999999999982" y="1189" as="sourcePoint" />
            <mxPoint x="227.69999999999982" y="1209" as="targetPoint" />
          </mxGeometry>
        </mxCell>
        <mxCell id="ojf8vlIbQqwhDHuOTLE6-187" value="&amp;lt;&amp;lt;entity&amp;gt;&amp;gt;&lt;br&gt;&lt;u&gt;u1: User&lt;/u&gt;" style="rounded=0;whiteSpace=wrap;html=1;" vertex="1" parent="1">
          <mxGeometry x="316" y="1149" width="120" height="40" as="geometry" />
        </mxCell>
        <mxCell id="ojf8vlIbQqwhDHuOTLE6-188" value="" style="endArrow=none;html=1;rounded=0;dashed=1;" edge="1" parent="1">
          <mxGeometry width="50" height="50" relative="1" as="geometry">
            <mxPoint x="375.6999999999998" y="1189" as="sourcePoint" />
            <mxPoint x="375.6999999999998" y="1209" as="targetPoint" />
          </mxGeometry>
        </mxCell>
        <mxCell id="ojf8vlIbQqwhDHuOTLE6-189" value="" style="rounded=0;whiteSpace=wrap;html=1;" vertex="1" parent="1">
          <mxGeometry x="216.5" y="1209" width="23" height="219" as="geometry" />
        </mxCell>
        <mxCell id="ojf8vlIbQqwhDHuOTLE6-190" value="" style="endArrow=open;html=1;rounded=0;endFill=0;" edge="1" parent="1">
          <mxGeometry width="50" height="50" relative="1" as="geometry">
            <mxPoint x="52" y="1224" as="sourcePoint" />
            <mxPoint x="215" y="1224" as="targetPoint" />
          </mxGeometry>
        </mxCell>
        <mxCell id="ojf8vlIbQqwhDHuOTLE6-191" value="clickViewProfile()" style="edgeLabel;html=1;align=center;verticalAlign=middle;resizable=0;points=[];fontSize=8;" vertex="1" connectable="0" parent="ojf8vlIbQqwhDHuOTLE6-190">
          <mxGeometry x="-0.3022" y="-1" relative="1" as="geometry">
            <mxPoint x="26" y="-2" as="offset" />
          </mxGeometry>
        </mxCell>
        <mxCell id="ojf8vlIbQqwhDHuOTLE6-192" value="" style="rounded=0;whiteSpace=wrap;html=1;" vertex="1" parent="1">
          <mxGeometry x="364.5" y="1209" width="23" height="219" as="geometry" />
        </mxCell>
        <mxCell id="ojf8vlIbQqwhDHuOTLE6-193" value="" style="endArrow=open;html=1;rounded=0;endFill=0;" edge="1" parent="1">
          <mxGeometry width="50" height="50" relative="1" as="geometry">
            <mxPoint x="54" y="1276" as="sourcePoint" />
            <mxPoint x="215.77999999999975" y="1276" as="targetPoint" />
          </mxGeometry>
        </mxCell>
        <mxCell id="ojf8vlIbQqwhDHuOTLE6-194" value="changeDetails(details)" style="edgeLabel;html=1;align=center;verticalAlign=middle;resizable=0;points=[];fontSize=8;" vertex="1" connectable="0" parent="ojf8vlIbQqwhDHuOTLE6-193">
          <mxGeometry x="-0.3022" y="-1" relative="1" as="geometry">
            <mxPoint x="26" y="-3" as="offset" />
          </mxGeometry>
        </mxCell>
        <mxCell id="ojf8vlIbQqwhDHuOTLE6-195" value="" style="endArrow=block;html=1;rounded=0;exitX=0.964;exitY=0.347;exitDx=0;exitDy=0;exitPerimeter=0;endFill=1;" edge="1" parent="1">
          <mxGeometry width="50" height="50" relative="1" as="geometry">
            <mxPoint x="239.50199999999995" y="1280.359" as="sourcePoint" />
            <mxPoint x="363" y="1280" as="targetPoint" />
          </mxGeometry>
        </mxCell>
        <mxCell id="ojf8vlIbQqwhDHuOTLE6-196" value="saveChanges(details)" style="edgeLabel;html=1;align=center;verticalAlign=middle;resizable=0;points=[];fontSize=8;" vertex="1" connectable="0" parent="ojf8vlIbQqwhDHuOTLE6-195">
          <mxGeometry x="-0.3022" y="-1" relative="1" as="geometry">
            <mxPoint x="19" y="-3" as="offset" />
          </mxGeometry>
        </mxCell>
        <mxCell id="ojf8vlIbQqwhDHuOTLE6-200" style="edgeStyle=orthogonalEdgeStyle;rounded=0;orthogonalLoop=1;jettySize=auto;html=1;fontSize=8;startArrow=none;startFill=0;endArrow=block;endFill=1;exitX=1.016;exitY=0.367;exitDx=0;exitDy=0;exitPerimeter=0;" edge="1" parent="1" source="ojf8vlIbQqwhDHuOTLE6-192">
          <mxGeometry relative="1" as="geometry">
            <mxPoint x="388" y="1308" as="targetPoint" />
            <Array as="points">
              <mxPoint x="407" y="1289" />
              <mxPoint x="407" y="1308" />
            </Array>
          </mxGeometry>
        </mxCell>
        <mxCell id="ojf8vlIbQqwhDHuOTLE6-201" value="validateUser()" style="edgeLabel;html=1;align=center;verticalAlign=middle;resizable=0;points=[];fontSize=8;" vertex="1" connectable="0" parent="ojf8vlIbQqwhDHuOTLE6-200">
          <mxGeometry x="-0.0543" relative="1" as="geometry">
            <mxPoint x="16" y="1" as="offset" />
          </mxGeometry>
        </mxCell>
        <mxCell id="ojf8vlIbQqwhDHuOTLE6-202" style="edgeStyle=orthogonalEdgeStyle;rounded=0;orthogonalLoop=1;jettySize=auto;html=1;entryX=1;entryY=0.5;entryDx=0;entryDy=0;fontSize=8;startArrow=none;startFill=0;endArrow=block;endFill=1;exitX=0.967;exitY=0.379;exitDx=0;exitDy=0;exitPerimeter=0;" edge="1" parent="1">
          <mxGeometry relative="1" as="geometry">
            <mxPoint x="239.5010000000002" y="1225.0030000000002" as="sourcePoint" />
            <mxPoint x="240.25999999999976" y="1248.8400000000001" as="targetPoint" />
            <Array as="points">
              <mxPoint x="259.76" y="1225.34" />
              <mxPoint x="259.76" y="1249.3400000000001" />
              <mxPoint x="239.76" y="1249.3400000000001" />
            </Array>
          </mxGeometry>
        </mxCell>
        <mxCell id="ojf8vlIbQqwhDHuOTLE6-203" value="displayProfile()" style="edgeLabel;html=1;align=center;verticalAlign=middle;resizable=0;points=[];fontSize=8;" vertex="1" connectable="0" parent="ojf8vlIbQqwhDHuOTLE6-202">
          <mxGeometry x="-0.0543" relative="1" as="geometry">
            <mxPoint x="10" as="offset" />
          </mxGeometry>
        </mxCell>
        <mxCell id="ojf8vlIbQqwhDHuOTLE6-208" style="edgeStyle=orthogonalEdgeStyle;rounded=0;orthogonalLoop=1;jettySize=auto;html=1;entryX=1;entryY=0.5;entryDx=0;entryDy=0;fontSize=8;startArrow=none;startFill=0;endArrow=open;endFill=0;exitX=0.967;exitY=0.379;exitDx=0;exitDy=0;exitPerimeter=0;dashed=1;" edge="1" parent="1">
          <mxGeometry relative="1" as="geometry">
            <mxPoint x="387.5010000000002" y="1318.0029999999997" as="sourcePoint" />
            <mxPoint x="388.2600000000002" y="1341.8400000000001" as="targetPoint" />
            <Array as="points">
              <mxPoint x="407.76" y="1318.34" />
              <mxPoint x="407.76" y="1342.34" />
              <mxPoint x="387.76" y="1342.34" />
            </Array>
          </mxGeometry>
        </mxCell>
        <mxCell id="ojf8vlIbQqwhDHuOTLE6-209" value="isValid" style="edgeLabel;html=1;align=center;verticalAlign=middle;resizable=0;points=[];fontSize=8;" vertex="1" connectable="0" parent="ojf8vlIbQqwhDHuOTLE6-208">
          <mxGeometry x="-0.0543" relative="1" as="geometry">
            <mxPoint x="2" as="offset" />
          </mxGeometry>
        </mxCell>
        <mxCell id="ojf8vlIbQqwhDHuOTLE6-211" style="edgeStyle=orthogonalEdgeStyle;rounded=0;orthogonalLoop=1;jettySize=auto;html=1;entryX=1;entryY=0.5;entryDx=0;entryDy=0;fontSize=8;startArrow=none;startFill=0;endArrow=block;endFill=1;exitX=0.967;exitY=0.379;exitDx=0;exitDy=0;exitPerimeter=0;" edge="1" parent="1">
          <mxGeometry relative="1" as="geometry">
            <mxPoint x="239.5010000000002" y="1393.0030000000002" as="sourcePoint" />
            <mxPoint x="240.25999999999976" y="1416.8400000000001" as="targetPoint" />
            <Array as="points">
              <mxPoint x="259.76" y="1393.3400000000001" />
              <mxPoint x="259.76" y="1417.3400000000001" />
              <mxPoint x="239.76" y="1417.3400000000001" />
            </Array>
          </mxGeometry>
        </mxCell>
        <mxCell id="ojf8vlIbQqwhDHuOTLE6-212" value="displayHome()" style="edgeLabel;html=1;align=center;verticalAlign=middle;resizable=0;points=[];fontSize=8;" vertex="1" connectable="0" parent="ojf8vlIbQqwhDHuOTLE6-211">
          <mxGeometry x="-0.0543" relative="1" as="geometry">
            <mxPoint x="10" as="offset" />
          </mxGeometry>
        </mxCell>
        <mxCell id="ojf8vlIbQqwhDHuOTLE6-213" value="Use cases 6, 7 and 8" style="text;html=1;align=center;verticalAlign=middle;resizable=0;points=[];autosize=1;strokeColor=none;fillColor=none;fontSize=7;" vertex="1" parent="1">
          <mxGeometry x="-67" y="1073" width="84" height="20" as="geometry" />
        </mxCell>
        <mxCell id="ojf8vlIbQqwhDHuOTLE6-224" style="edgeStyle=orthogonalEdgeStyle;rounded=0;orthogonalLoop=1;jettySize=auto;html=1;entryX=1;entryY=0.5;entryDx=0;entryDy=0;fontSize=8;startArrow=none;startFill=0;endArrow=block;endFill=1;exitX=0.967;exitY=0.379;exitDx=0;exitDy=0;exitPerimeter=0;" edge="1" parent="1">
          <mxGeometry relative="1" as="geometry">
            <mxPoint x="470.001" y="966.0030000000002" as="sourcePoint" />
            <mxPoint x="470.7600000000002" y="989.8400000000001" as="targetPoint" />
            <Array as="points">
              <mxPoint x="490.26" y="966.34" />
              <mxPoint x="490.26" y="990.34" />
              <mxPoint x="470.26" y="990.34" />
            </Array>
          </mxGeometry>
        </mxCell>
        <mxCell id="ojf8vlIbQqwhDHuOTLE6-225" value="registerUser()" style="edgeLabel;html=1;align=center;verticalAlign=middle;resizable=0;points=[];fontSize=8;" vertex="1" connectable="0" parent="ojf8vlIbQqwhDHuOTLE6-224">
          <mxGeometry x="-0.0543" relative="1" as="geometry">
            <mxPoint x="16" as="offset" />
          </mxGeometry>
        </mxCell>
        <mxCell id="ojf8vlIbQqwhDHuOTLE6-226" value="" style="endArrow=none;html=1;rounded=0;exitX=0.964;exitY=0.347;exitDx=0;exitDy=0;exitPerimeter=0;endFill=0;startArrow=open;startFill=0;dashed=1;" edge="1" parent="1">
          <mxGeometry width="50" height="50" relative="1" as="geometry">
            <mxPoint x="304.50199999999995" y="999.5989999999999" as="sourcePoint" />
            <mxPoint x="446" y="1000" as="targetPoint" />
          </mxGeometry>
        </mxCell>
        <mxCell id="ojf8vlIbQqwhDHuOTLE6-227" value="isRegistered" style="edgeLabel;html=1;align=center;verticalAlign=middle;resizable=0;points=[];fontSize=8;" vertex="1" connectable="0" parent="ojf8vlIbQqwhDHuOTLE6-226">
          <mxGeometry x="-0.3022" y="-1" relative="1" as="geometry">
            <mxPoint x="19" y="-3" as="offset" />
          </mxGeometry>
        </mxCell>
        <mxCell id="ojf8vlIbQqwhDHuOTLE6-228" style="edgeStyle=orthogonalEdgeStyle;rounded=0;orthogonalLoop=1;jettySize=auto;html=1;dashed=1;fontSize=7;startArrow=none;startFill=0;endArrow=none;endFill=0;exitX=0.5;exitY=1;exitDx=0;exitDy=0;" edge="1" parent="1">
          <mxGeometry relative="1" as="geometry">
            <mxPoint x="630" y="960.9999999999998" as="sourcePoint" />
            <mxPoint x="630" y="1047" as="targetPoint" />
            <Array as="points">
              <mxPoint x="630" y="979" />
              <mxPoint x="630" y="979" />
            </Array>
          </mxGeometry>
        </mxCell>
        <mxCell id="ojf8vlIbQqwhDHuOTLE6-229" value="" style="endArrow=none;html=1;rounded=0;dashed=1;exitX=0.5;exitY=1;exitDx=0;exitDy=0;entryX=0.123;entryY=0.999;entryDx=0;entryDy=0;entryPerimeter=0;" edge="1" parent="1">
          <mxGeometry width="50" height="50" relative="1" as="geometry">
            <mxPoint x="-8.749999999999773" y="627" as="sourcePoint" />
            <mxPoint x="-9.386000000000195" y="1046.4249999999997" as="targetPoint" />
          </mxGeometry>
        </mxCell>
        <mxCell id="ojf8vlIbQqwhDHuOTLE6-230" value="&amp;lt;&amp;lt;entity&amp;gt;&amp;gt;&lt;br&gt;&lt;u&gt;u1: User&lt;/u&gt;" style="rounded=0;whiteSpace=wrap;html=1;" vertex="1" parent="1">
          <mxGeometry x="618.5" y="168" width="120" height="40" as="geometry" />
        </mxCell>
        <mxCell id="ojf8vlIbQqwhDHuOTLE6-231" value="" style="endArrow=none;html=1;rounded=0;dashed=1;entryX=0.5;entryY=0;entryDx=0;entryDy=0;" edge="1" parent="1" target="ojf8vlIbQqwhDHuOTLE6-232">
          <mxGeometry width="50" height="50" relative="1" as="geometry">
            <mxPoint x="678.1999999999998" y="208.0000000000001" as="sourcePoint" />
            <mxPoint x="678.2" y="228" as="targetPoint" />
          </mxGeometry>
        </mxCell>
        <mxCell id="ojf8vlIbQqwhDHuOTLE6-232" value="" style="rounded=0;whiteSpace=wrap;html=1;" vertex="1" parent="1">
          <mxGeometry x="667" y="383" width="23" height="29" as="geometry" />
        </mxCell>
        <mxCell id="ojf8vlIbQqwhDHuOTLE6-233" value="" style="endArrow=none;html=1;rounded=0;dashed=1;entryX=0.9;entryY=-0.027;entryDx=0;entryDy=0;entryPerimeter=0;" edge="1" parent="1">
          <mxGeometry width="50" height="50" relative="1" as="geometry">
            <mxPoint x="678.23" y="412" as="sourcePoint" />
            <mxPoint x="679.1499999999996" y="444.6239999999998" as="targetPoint" />
          </mxGeometry>
        </mxCell>
      </root>
    </mxGraphModel>
  </diagram>
</mxfile>
